<svg xmlns="http://www.w3.org/2000/svg" fill="none" viewBox="0 0 24 24" stroke="#9FA8FB">
    <path d="M5.44422 7.34924C2.73858 7.96143 1.38576 8.26751 1.0639 9.30252C0.742037 10.3375 1.66431 11.416 3.50884 13.5729L3.98604 14.1309C4.5102 14.7439 4.77228 15.0503 4.89018 15.4295C5.00808 15.8087 4.96846 16.2175 4.88921 17.0354L4.81707 17.7799C4.5382 20.6577 4.39876 22.0966 5.24139 22.7363C6.08403 23.3759 7.35067 22.7927 9.88399 21.6263L10.5394 21.3245C11.2592 20.9931 11.6191 20.8273 12.0007 20.8273C12.3823 20.8273 12.7422 20.9931 13.4621 21.3245L14.1174 21.6263C16.6507 22.7927 17.9174 23.3759 18.7601 22.7363C19.6027 22.0966 19.4632 20.6577 19.1844 17.7799M20.4926 13.5729C22.3372 11.416 23.2594 10.3375 22.9376 9.30252C22.6157 8.26751 21.2628 7.96143 18.5573 7.34924L17.8572 7.19086C17.0883 7.0169 16.704 6.92992 16.3953 6.6956C16.0866 6.46128 15.8887 6.10613 15.4927 5.39586L15.1322 4.74921C13.7389 2.24973 13.0423 1 12.0007 1C10.9591 1 10.2625 2.24974 8.8692 4.74922" stroke="#9FA8FB" stroke-width="2" stroke-linecap="round"/>
</svg>
